<?xml version="1.0" encoding="UTF-8" standalone="no"?>
<!DOCTYPE svg PUBLIC "-//W3C//DTD SVG 1.1//EN"
 "http://www.w3.org/Graphics/SVG/1.1/DTD/svg11.dtd">
<!-- Generated by graphviz version 2.43.0 (0)
 -->
<!-- Title: %3 Pages: 1 -->
<svg width="493pt" height="476pt"
 viewBox="0.00 0.00 493.00 476.00" xmlns="http://www.w3.org/2000/svg" xmlns:xlink="http://www.w3.org/1999/xlink">
<g id="graph0" class="graph" transform="scale(1 1) rotate(0) translate(4 472)">
<title>%3</title>
<polygon fill="white" stroke="transparent" points="-4,4 -4,-472 489,-472 489,4 -4,4"/>
<!-- n4 -->
<g id="node1" class="node">
<title>n4</title>
<ellipse fill="none" stroke="black" cx="310" cy="-162" rx="76.89" ry="18"/>
<text text-anchor="middle" x="310" y="-158.3" font-family="Times,serif" font-size="14.00" fill="red">ansible&#45;server</text>
</g>
<!-- n3 -->
<g id="node5" class="node">
<title>n3</title>
<ellipse fill="none" stroke="black" cx="126" cy="-90" rx="50.89" ry="18"/>
<text text-anchor="middle" x="126" y="-86.3" font-family="Times,serif" font-size="14.00" fill="red">platform</text>
</g>
<!-- n4&#45;&gt;n3 -->
<g id="edge2" class="edge">
<title>n4&#45;&gt;n3</title>
<path fill="none" stroke="black" d="M271.43,-146.33C241.47,-134.93 199.96,-119.14 168.95,-107.34"/>
<polygon fill="black" stroke="black" points="169.87,-103.94 159.28,-103.66 167.38,-110.49 169.87,-103.94"/>
</g>
<!-- n1 -->
<g id="node7" class="node">
<title>n1</title>
<ellipse fill="none" stroke="black" cx="307" cy="-18" rx="40.09" ry="18"/>
<text text-anchor="middle" x="307" y="-14.3" font-family="Times,serif" font-size="14.00" fill="red">stacks</text>
</g>
<!-- n4&#45;&gt;n1 -->
<g id="edge1" class="edge">
<title>n4&#45;&gt;n1</title>
<path fill="none" stroke="black" d="M347.4,-146.06C363.57,-137.5 380.86,-125.03 390,-108 397.57,-93.9 397.69,-86.03 390,-72 380.73,-55.08 363.5,-42.78 347.14,-34.31"/>
<polygon fill="black" stroke="black" points="348.2,-30.94 337.67,-29.76 345.16,-37.25 348.2,-30.94"/>
</g>
<!-- n2 -->
<g id="node2" class="node">
<title>n2</title>
<ellipse fill="none" stroke="black" cx="241" cy="-450" rx="32.49" ry="18"/>
<text text-anchor="middle" x="241" y="-446.3" font-family="Times,serif" font-size="14.00" fill="red">apps</text>
</g>
<!-- n2&#45;&gt;n4 -->
<g id="edge5" class="edge">
<title>n2&#45;&gt;n4</title>
<path fill="none" stroke="black" d="M250.36,-432.67C255.99,-422.38 263.02,-408.69 268,-396 292.33,-334.06 299.43,-317.85 309,-252 311.98,-231.49 312.11,-208.03 311.56,-190.35"/>
<polygon fill="black" stroke="black" points="315.05,-190.02 311.15,-180.17 308.06,-190.3 315.05,-190.02"/>
</g>
<!-- n5 -->
<g id="node3" class="node">
<title>n5</title>
<ellipse fill="none" stroke="black" cx="235" cy="-234" rx="44.69" ry="18"/>
<text text-anchor="middle" x="235" y="-230.3" font-family="Times,serif" font-size="14.00" fill="red">bastion</text>
</g>
<!-- n2&#45;&gt;n5 -->
<g id="edge6" class="edge">
<title>n2&#45;&gt;n5</title>
<path fill="none" stroke="black" d="M245.87,-431.98C248.56,-421.67 251.64,-408.19 253,-396 258.28,-348.79 248.76,-293.79 241.67,-261.83"/>
<polygon fill="black" stroke="black" points="245.04,-260.88 239.38,-251.92 238.22,-262.45 245.04,-260.88"/>
</g>
<!-- n2&#45;&gt;n3 -->
<g id="edge4" class="edge">
<title>n2&#45;&gt;n3</title>
<path fill="none" stroke="black" d="M209.49,-445.24C144.17,-435.52 0,-403.15 0,-307 0,-307 0,-307 0,-233 0,-178.08 53.39,-134.49 90.66,-110.75"/>
<polygon fill="black" stroke="black" points="92.61,-113.66 99.28,-105.43 88.93,-107.71 92.61,-113.66"/>
</g>
<!-- n6 -->
<g id="node6" class="node">
<title>n6</title>
<ellipse fill="none" stroke="black" cx="98" cy="-306" rx="69.59" ry="18"/>
<text text-anchor="middle" x="98" y="-302.3" font-family="Times,serif" font-size="14.00" fill="red">platform&#45;k8s</text>
</g>
<!-- n2&#45;&gt;n6 -->
<g id="edge7" class="edge">
<title>n2&#45;&gt;n6</title>
<path fill="none" stroke="black" d="M220.33,-435.92C205.3,-425.92 184.88,-411.28 169,-396 148.59,-376.36 128.78,-350.82 115.3,-332.14"/>
<polygon fill="black" stroke="black" points="118.03,-329.95 109.39,-323.83 112.33,-334.01 118.03,-329.95"/>
</g>
<!-- n2&#45;&gt;n1 -->
<g id="edge3" class="edge">
<title>n2&#45;&gt;n1</title>
<path fill="none" stroke="black" d="M272.9,-445.38C339.04,-435.92 485,-404.04 485,-307 485,-307 485,-307 485,-161 485,-91.78 401.72,-50.82 349.09,-31.84"/>
<polygon fill="black" stroke="black" points="350.24,-28.54 339.65,-28.55 347.94,-35.15 350.24,-28.54"/>
</g>
<!-- n7 -->
<g id="node8" class="node">
<title>n7</title>
<ellipse fill="none" stroke="black" cx="211" cy="-378" rx="33.29" ry="18"/>
<text text-anchor="middle" x="211" y="-374.3" font-family="Times,serif" font-size="14.00" fill="red">tools</text>
</g>
<!-- n2&#45;&gt;n7 -->
<g id="edge8" class="edge">
<title>n2&#45;&gt;n7</title>
<path fill="none" stroke="black" d="M233.89,-432.41C230.43,-424.34 226.18,-414.43 222.29,-405.35"/>
<polygon fill="black" stroke="black" points="225.42,-403.77 218.27,-395.96 218.99,-406.53 225.42,-403.77"/>
</g>
<!-- n5&#45;&gt;n4 -->
<g id="edge11" class="edge">
<title>n5&#45;&gt;n4</title>
<path fill="none" stroke="black" d="M252.02,-217.12C261.69,-208.09 273.98,-196.62 284.75,-186.57"/>
<polygon fill="black" stroke="black" points="287.34,-188.93 292.27,-179.55 282.57,-183.82 287.34,-188.93"/>
</g>
<!-- n5&#45;&gt;n3 -->
<g id="edge10" class="edge">
<title>n5&#45;&gt;n3</title>
<path fill="none" stroke="black" d="M220.86,-216.51C212.1,-206.15 200.7,-192.45 191,-180 174.43,-158.73 156.4,-133.9 143.55,-115.88"/>
<polygon fill="black" stroke="black" points="146.33,-113.75 137.68,-107.63 140.62,-117.81 146.33,-113.75"/>
</g>
<!-- n5&#45;&gt;n1 -->
<g id="edge9" class="edge">
<title>n5&#45;&gt;n1</title>
<path fill="none" stroke="black" d="M228.08,-215.72C216.87,-184.76 198.42,-118.68 224,-72 233.27,-55.08 250.5,-42.78 266.86,-34.31"/>
<polygon fill="black" stroke="black" points="268.84,-37.25 276.33,-29.76 265.8,-30.94 268.84,-37.25"/>
</g>
<!-- n8 -->
<g id="node4" class="node">
<title>n8</title>
<ellipse fill="none" stroke="black" cx="307" cy="-90" rx="74.19" ry="18"/>
<text text-anchor="middle" x="307" y="-86.3" font-family="Times,serif" font-size="14.00" fill="red">grafana&#45;cloud</text>
</g>
<!-- n8&#45;&gt;n1 -->
<g id="edge12" class="edge">
<title>n8&#45;&gt;n1</title>
<path fill="none" stroke="black" d="M307,-71.7C307,-63.98 307,-54.71 307,-46.11"/>
<polygon fill="black" stroke="black" points="310.5,-46.1 307,-36.1 303.5,-46.1 310.5,-46.1"/>
</g>
<!-- n3&#45;&gt;n1 -->
<g id="edge13" class="edge">
<title>n3&#45;&gt;n1</title>
<path fill="none" stroke="black" d="M159.2,-76.16C189.9,-64.29 235.56,-46.63 268,-34.08"/>
<polygon fill="black" stroke="black" points="269.54,-37.24 277.6,-30.37 267.02,-30.71 269.54,-37.24"/>
</g>
<!-- n6&#45;&gt;n4 -->
<g id="edge16" class="edge">
<title>n6&#45;&gt;n4</title>
<path fill="none" stroke="black" d="M110.07,-288.19C124.87,-268.59 151.63,-236.31 181,-216 203.23,-200.63 230.6,-188.58 254.4,-179.89"/>
<polygon fill="black" stroke="black" points="255.75,-183.12 264.01,-176.49 253.42,-176.53 255.75,-183.12"/>
</g>
<!-- n6&#45;&gt;n5 -->
<g id="edge17" class="edge">
<title>n6&#45;&gt;n5</title>
<path fill="none" stroke="black" d="M128.07,-289.64C149.02,-278.93 177.06,-264.6 199.17,-253.31"/>
<polygon fill="black" stroke="black" points="200.94,-256.33 208.25,-248.67 197.75,-250.1 200.94,-256.33"/>
</g>
<!-- n6&#45;&gt;n3 -->
<g id="edge15" class="edge">
<title>n6&#45;&gt;n3</title>
<path fill="none" stroke="black" d="M99.27,-287.53C101.56,-257.9 106.89,-195.93 115,-144 116.33,-135.51 118.11,-126.33 119.85,-118.03"/>
<polygon fill="black" stroke="black" points="123.3,-118.62 122,-108.11 116.46,-117.14 123.3,-118.62"/>
</g>
<!-- n6&#45;&gt;n1 -->
<g id="edge14" class="edge">
<title>n6&#45;&gt;n1</title>
<path fill="none" stroke="black" d="M88.12,-288.1C65.12,-246.33 13.81,-136.92 66,-72 89.52,-42.75 193.77,-28.71 257.21,-22.76"/>
<polygon fill="black" stroke="black" points="257.75,-26.23 267.4,-21.84 257.13,-19.25 257.75,-26.23"/>
</g>
<!-- n7&#45;&gt;n4 -->
<g id="edge20" class="edge">
<title>n7&#45;&gt;n4</title>
<path fill="none" stroke="black" d="M223.43,-360.96C240.62,-338.04 271.49,-294.03 289,-252 297.28,-232.13 302.68,-208.33 305.93,-190.35"/>
<polygon fill="black" stroke="black" points="309.42,-190.69 307.64,-180.25 302.52,-189.52 309.42,-190.69"/>
</g>
<!-- n7&#45;&gt;n5 -->
<g id="edge21" class="edge">
<title>n7&#45;&gt;n5</title>
<path fill="none" stroke="black" d="M213.89,-359.87C217.99,-335.67 225.5,-291.21 230.37,-262.39"/>
<polygon fill="black" stroke="black" points="233.88,-262.63 232.09,-252.19 226.98,-261.47 233.88,-262.63"/>
</g>
<!-- n7&#45;&gt;n3 -->
<g id="edge19" class="edge">
<title>n7&#45;&gt;n3</title>
<path fill="none" stroke="black" d="M205.94,-359.97C191.71,-312.08 151.26,-175.98 133.98,-117.85"/>
<polygon fill="black" stroke="black" points="137.24,-116.53 131.04,-107.94 130.53,-118.53 137.24,-116.53"/>
</g>
<!-- n7&#45;&gt;n6 -->
<g id="edge22" class="edge">
<title>n7&#45;&gt;n6</title>
<path fill="none" stroke="black" d="M190.01,-364C173.81,-353.96 151.06,-339.87 132.24,-328.21"/>
<polygon fill="black" stroke="black" points="133.98,-325.17 123.63,-322.88 130.29,-331.12 133.98,-325.17"/>
</g>
<!-- n7&#45;&gt;n1 -->
<g id="edge18" class="edge">
<title>n7&#45;&gt;n1</title>
<path fill="none" stroke="black" d="M230.57,-363.46C270.04,-334.87 358.64,-264.03 396,-180 415.59,-135.95 430.77,-113.36 406,-72 393.98,-51.93 371.48,-39.03 350.96,-30.99"/>
<polygon fill="black" stroke="black" points="352,-27.64 341.41,-27.52 349.62,-34.23 352,-27.64"/>
</g>
</g>
</svg>
