<?xml version="1.0" encoding="UTF-8" standalone="no"?>
<!DOCTYPE svg PUBLIC "-//W3C//DTD SVG 1.1//EN"
 "http://www.w3.org/Graphics/SVG/1.1/DTD/svg11.dtd">
<!-- Generated by graphviz version 2.43.0 (0)
 -->
<!-- Title: %3 Pages: 1 -->
<svg width="598pt" height="548pt"
 viewBox="0.00 0.00 598.00 548.00" xmlns="http://www.w3.org/2000/svg" xmlns:xlink="http://www.w3.org/1999/xlink">
<g id="graph0" class="graph" transform="scale(1 1) rotate(0) translate(4 544)">
<title>%3</title>
<polygon fill="white" stroke="transparent" points="-4,4 -4,-544 594,-544 594,4 -4,4"/>
<!-- n5 -->
<g id="node1" class="node">
<title>n5</title>
<ellipse fill="none" stroke="black" cx="409" cy="-234" rx="76.89" ry="18"/>
<text text-anchor="middle" x="409" y="-230.3" font-family="Times,serif" font-size="14.00" fill="red">ansible&#45;server</text>
</g>
<!-- n4 -->
<g id="node4" class="node">
<title>n4</title>
<ellipse fill="none" stroke="black" cx="319" cy="-90" rx="74.19" ry="18"/>
<text text-anchor="middle" x="319" y="-86.3" font-family="Times,serif" font-size="14.00" fill="red">grafana&#45;cloud</text>
</g>
<!-- n5&#45;&gt;n4 -->
<g id="edge3" class="edge">
<title>n5&#45;&gt;n4</title>
<path fill="none" stroke="black" d="M398.32,-216.15C382.69,-191.49 353.46,-145.37 335.18,-116.53"/>
<polygon fill="black" stroke="black" points="337.97,-114.4 329.66,-107.82 332.06,-118.15 337.97,-114.4"/>
</g>
<!-- n3 -->
<g id="node5" class="node">
<title>n3</title>
<ellipse fill="none" stroke="black" cx="229" cy="-162" rx="50.89" ry="18"/>
<text text-anchor="middle" x="229" y="-158.3" font-family="Times,serif" font-size="14.00" fill="red">platform</text>
</g>
<!-- n5&#45;&gt;n3 -->
<g id="edge2" class="edge">
<title>n5&#45;&gt;n3</title>
<path fill="none" stroke="black" d="M371.27,-218.33C342.06,-206.97 301.61,-191.24 271.3,-179.45"/>
<polygon fill="black" stroke="black" points="272.44,-176.14 261.85,-175.77 269.9,-182.66 272.44,-176.14"/>
</g>
<!-- n1 -->
<g id="node7" class="node">
<title>n1</title>
<ellipse fill="none" stroke="black" cx="319" cy="-18" rx="40.09" ry="18"/>
<text text-anchor="middle" x="319" y="-14.3" font-family="Times,serif" font-size="14.00" fill="red">stacks</text>
</g>
<!-- n5&#45;&gt;n1 -->
<g id="edge1" class="edge">
<title>n5&#45;&gt;n1</title>
<path fill="none" stroke="black" d="M413.14,-215.6C419.55,-184.43 428.55,-118.05 402,-72 392.36,-55.28 375.09,-43.01 358.79,-34.5"/>
<polygon fill="black" stroke="black" points="359.9,-31.15 349.37,-29.93 356.84,-37.44 359.9,-31.15"/>
</g>
<!-- n2 -->
<g id="node2" class="node">
<title>n2</title>
<ellipse fill="none" stroke="black" cx="260" cy="-522" rx="32.49" ry="18"/>
<text text-anchor="middle" x="260" y="-518.3" font-family="Times,serif" font-size="14.00" fill="red">apps</text>
</g>
<!-- n2&#45;&gt;n5 -->
<g id="edge6" class="edge">
<title>n2&#45;&gt;n5</title>
<path fill="none" stroke="black" d="M290.59,-515.83C318.02,-509.49 357.05,-495.94 378,-468 424.21,-406.36 419.13,-308.91 413.27,-262"/>
<polygon fill="black" stroke="black" points="416.72,-261.43 411.91,-252 409.79,-262.38 416.72,-261.43"/>
</g>
<!-- n6 -->
<g id="node3" class="node">
<title>n6</title>
<ellipse fill="none" stroke="black" cx="261" cy="-306" rx="44.69" ry="18"/>
<text text-anchor="middle" x="261" y="-302.3" font-family="Times,serif" font-size="14.00" fill="red">bastion</text>
</g>
<!-- n2&#45;&gt;n6 -->
<g id="edge7" class="edge">
<title>n2&#45;&gt;n6</title>
<path fill="none" stroke="black" d="M260.08,-503.85C260.25,-466.83 260.66,-379.18 260.87,-334.39"/>
<polygon fill="black" stroke="black" points="264.37,-334.25 260.92,-324.23 257.37,-334.22 264.37,-334.25"/>
</g>
<!-- n2&#45;&gt;n4 -->
<g id="edge10" class="edge">
<title>n2&#45;&gt;n4</title>
<path fill="none" stroke="black" d="M228.12,-518.35C158.69,-510.67 0,-481.86 0,-379 0,-379 0,-379 0,-305 0,-184.19 159.73,-127.2 253.13,-104.2"/>
<polygon fill="black" stroke="black" points="254.16,-107.56 263.07,-101.82 252.53,-100.75 254.16,-107.56"/>
</g>
<!-- n2&#45;&gt;n3 -->
<g id="edge5" class="edge">
<title>n2&#45;&gt;n3</title>
<path fill="none" stroke="black" d="M233.43,-511.48C192.35,-495.15 114.84,-457.46 83,-396 40.9,-314.73 143.77,-224.49 198.06,-184.31"/>
<polygon fill="black" stroke="black" points="200.3,-187.01 206.33,-178.3 196.18,-181.35 200.3,-187.01"/>
</g>
<!-- n7 -->
<g id="node6" class="node">
<title>n7</title>
<ellipse fill="none" stroke="black" cx="162" cy="-378" rx="69.59" ry="18"/>
<text text-anchor="middle" x="162" y="-374.3" font-family="Times,serif" font-size="14.00" fill="red">platform&#45;k8s</text>
</g>
<!-- n2&#45;&gt;n7 -->
<g id="edge8" class="edge">
<title>n2&#45;&gt;n7</title>
<path fill="none" stroke="black" d="M248.95,-504.99C232.07,-480.53 199.72,-433.66 179.59,-404.49"/>
<polygon fill="black" stroke="black" points="182.33,-402.3 173.77,-396.06 176.57,-406.27 182.33,-402.3"/>
</g>
<!-- n2&#45;&gt;n1 -->
<g id="edge4" class="edge">
<title>n2&#45;&gt;n1</title>
<path fill="none" stroke="black" d="M292.54,-521.57C375.8,-521.17 590,-507.64 590,-379 590,-379 590,-379 590,-161 590,-62.26 447.09,-32.04 368.83,-22.9"/>
<polygon fill="black" stroke="black" points="369.02,-19.4 358.7,-21.79 368.26,-26.36 369.02,-19.4"/>
</g>
<!-- n8 -->
<g id="node8" class="node">
<title>n8</title>
<ellipse fill="none" stroke="black" cx="336" cy="-450" rx="33.29" ry="18"/>
<text text-anchor="middle" x="336" y="-446.3" font-family="Times,serif" font-size="14.00" fill="red">tools</text>
</g>
<!-- n2&#45;&gt;n8 -->
<g id="edge9" class="edge">
<title>n2&#45;&gt;n8</title>
<path fill="none" stroke="black" d="M276.12,-506.15C286.7,-496.41 300.71,-483.5 312.52,-472.63"/>
<polygon fill="black" stroke="black" points="314.92,-475.17 319.91,-465.82 310.18,-470.02 314.92,-475.17"/>
</g>
<!-- n6&#45;&gt;n5 -->
<g id="edge13" class="edge">
<title>n6&#45;&gt;n5</title>
<path fill="none" stroke="black" d="M288.84,-291.83C310.89,-281.4 342.05,-266.67 367.11,-254.81"/>
<polygon fill="black" stroke="black" points="368.84,-257.87 376.38,-250.43 365.85,-251.54 368.84,-257.87"/>
</g>
<!-- n6&#45;&gt;n4 -->
<g id="edge14" class="edge">
<title>n6&#45;&gt;n4</title>
<path fill="none" stroke="black" d="M265.65,-287.85C275.7,-250.75 299.54,-162.81 311.65,-118.1"/>
<polygon fill="black" stroke="black" points="315.09,-118.8 314.33,-108.23 308.34,-116.97 315.09,-118.8"/>
</g>
<!-- n6&#45;&gt;n3 -->
<g id="edge12" class="edge">
<title>n6&#45;&gt;n3</title>
<path fill="none" stroke="black" d="M257.14,-287.87C251.66,-263.56 241.58,-218.82 235.09,-190.01"/>
<polygon fill="black" stroke="black" points="238.49,-189.18 232.87,-180.19 231.66,-190.71 238.49,-189.18"/>
</g>
<!-- n6&#45;&gt;n1 -->
<g id="edge11" class="edge">
<title>n6&#45;&gt;n1</title>
<path fill="none" stroke="black" d="M241.55,-289.59C209.35,-262.06 150.28,-201.89 169,-144 181.14,-106.44 191.34,-98.04 221,-72 238.61,-56.54 261.51,-43.84 280.74,-34.75"/>
<polygon fill="black" stroke="black" points="282.21,-37.93 289.85,-30.58 279.3,-31.56 282.21,-37.93"/>
</g>
<!-- n4&#45;&gt;n1 -->
<g id="edge15" class="edge">
<title>n4&#45;&gt;n1</title>
<path fill="none" stroke="black" d="M319,-71.7C319,-63.98 319,-54.71 319,-46.11"/>
<polygon fill="black" stroke="black" points="322.5,-46.1 319,-36.1 315.5,-46.1 322.5,-46.1"/>
</g>
<!-- n3&#45;&gt;n4 -->
<g id="edge17" class="edge">
<title>n3&#45;&gt;n4</title>
<path fill="none" stroke="black" d="M249.42,-145.12C261.45,-135.76 276.85,-123.78 290.11,-113.47"/>
<polygon fill="black" stroke="black" points="292.29,-116.21 298.03,-107.31 287.99,-110.68 292.29,-116.21"/>
</g>
<!-- n3&#45;&gt;n1 -->
<g id="edge16" class="edge">
<title>n3&#45;&gt;n1</title>
<path fill="none" stroke="black" d="M226.08,-143.91C223.75,-124.93 222.76,-94.06 236,-72 245.93,-55.46 263.23,-43.2 279.48,-34.66"/>
<polygon fill="black" stroke="black" points="281.42,-37.61 288.86,-30.06 278.34,-31.32 281.42,-37.61"/>
</g>
<!-- n7&#45;&gt;n5 -->
<g id="edge20" class="edge">
<title>n7&#45;&gt;n5</title>
<path fill="none" stroke="black" d="M212.24,-365.4C243.3,-356.85 283.16,-343.33 315,-324 343.53,-306.67 370.6,-279.49 388.3,-259.72"/>
<polygon fill="black" stroke="black" points="391.09,-261.84 395.06,-252.02 385.83,-257.23 391.09,-261.84"/>
</g>
<!-- n7&#45;&gt;n6 -->
<g id="edge21" class="edge">
<title>n7&#45;&gt;n6</title>
<path fill="none" stroke="black" d="M184.96,-360.76C198.81,-350.97 216.59,-338.4 231.48,-327.88"/>
<polygon fill="black" stroke="black" points="233.71,-330.58 239.85,-321.95 229.67,-324.87 233.71,-330.58"/>
</g>
<!-- n7&#45;&gt;n4 -->
<g id="edge22" class="edge">
<title>n7&#45;&gt;n4</title>
<path fill="none" stroke="black" d="M156.64,-360.01C144.66,-318.52 120.44,-210.52 169,-144 186.04,-120.66 214.22,-107.54 241.57,-100.19"/>
<polygon fill="black" stroke="black" points="242.71,-103.52 251.59,-97.74 241.05,-96.72 242.71,-103.52"/>
</g>
<!-- n7&#45;&gt;n3 -->
<g id="edge19" class="edge">
<title>n7&#45;&gt;n3</title>
<path fill="none" stroke="black" d="M167.37,-359.85C179.04,-322.58 206.77,-234 220.71,-189.49"/>
<polygon fill="black" stroke="black" points="224.05,-190.52 223.7,-179.94 217.37,-188.43 224.05,-190.52"/>
</g>
<!-- n7&#45;&gt;n1 -->
<g id="edge18" class="edge">
<title>n7&#45;&gt;n1</title>
<path fill="none" stroke="black" d="M152.24,-359.93C146.99,-349.83 140.99,-336.58 138,-324 111.72,-213.46 103,-154.62 181,-72 204.64,-46.96 241.41,-33.61 271.05,-26.57"/>
<polygon fill="black" stroke="black" points="272.19,-29.9 281.21,-24.34 270.69,-23.07 272.19,-29.9"/>
</g>
<!-- n8&#45;&gt;n5 -->
<g id="edge25" class="edge">
<title>n8&#45;&gt;n5</title>
<path fill="none" stroke="black" d="M341.73,-432.21C354.36,-395.19 384.68,-306.3 399.92,-261.6"/>
<polygon fill="black" stroke="black" points="403.28,-262.6 403.2,-252.01 396.66,-260.34 403.28,-262.6"/>
</g>
<!-- n8&#45;&gt;n6 -->
<g id="edge26" class="edge">
<title>n8&#45;&gt;n6</title>
<path fill="none" stroke="black" d="M327.25,-432.43C314.34,-407.98 290.05,-362 274.74,-333.02"/>
<polygon fill="black" stroke="black" points="277.69,-331.11 269.93,-323.9 271.5,-334.38 277.69,-331.11"/>
</g>
<!-- n8&#45;&gt;n4 -->
<g id="edge28" class="edge">
<title>n8&#45;&gt;n4</title>
<path fill="none" stroke="black" d="M357.12,-436.07C410.12,-401.89 541.28,-305.64 495,-216 468.22,-164.14 408.9,-129.12 366.53,-109.64"/>
<polygon fill="black" stroke="black" points="367.79,-106.37 357.23,-105.49 364.94,-112.76 367.79,-106.37"/>
</g>
<!-- n8&#45;&gt;n3 -->
<g id="edge24" class="edge">
<title>n8&#45;&gt;n3</title>
<path fill="none" stroke="black" d="M336.36,-431.91C336.43,-401.79 334.07,-337.74 315,-288 300.15,-249.28 271.04,-210.91 250.82,-187.1"/>
<polygon fill="black" stroke="black" points="253.27,-184.58 244.08,-179.31 247.98,-189.16 253.27,-184.58"/>
</g>
<!-- n8&#45;&gt;n7 -->
<g id="edge27" class="edge">
<title>n8&#45;&gt;n7</title>
<path fill="none" stroke="black" d="M309.95,-438.52C282.86,-427.62 239.91,-410.34 207.25,-397.21"/>
<polygon fill="black" stroke="black" points="208.49,-393.93 197.91,-393.45 205.88,-400.43 208.49,-393.93"/>
</g>
<!-- n8&#45;&gt;n1 -->
<g id="edge23" class="edge">
<title>n8&#45;&gt;n1</title>
<path fill="none" stroke="black" d="M363.38,-439.5C386.62,-430.59 420.06,-415.69 445,-396 512.43,-342.75 552,-320.92 552,-235 552,-235 552,-235 552,-161 552,-75.16 435.27,-39.7 367.05,-26.3"/>
<polygon fill="black" stroke="black" points="367.43,-22.81 356.95,-24.41 366.14,-29.69 367.43,-22.81"/>
</g>
</g>
</svg>
