<?xml version="1.0" encoding="UTF-8" standalone="no"?>
<!DOCTYPE svg PUBLIC "-//W3C//DTD SVG 1.1//EN"
 "http://www.w3.org/Graphics/SVG/1.1/DTD/svg11.dtd">
<!-- Generated by graphviz version 2.43.0 (0)
 -->
<!-- Title: %3 Pages: 1 -->
<svg width="1040pt" height="548pt"
 viewBox="0.00 0.00 1040.00 548.00" xmlns="http://www.w3.org/2000/svg" xmlns:xlink="http://www.w3.org/1999/xlink">
<g id="graph0" class="graph" transform="scale(1 1) rotate(0) translate(4 544)">
<title>%3</title>
<polygon fill="white" stroke="transparent" points="-4,4 -4,-544 1036,-544 1036,4 -4,4"/>
<!-- n4 -->
<g id="node1" class="node">
<title>n4</title>
<ellipse fill="none" stroke="black" cx="484" cy="-162" rx="76.89" ry="18"/>
<text text-anchor="middle" x="484" y="-158.3" font-family="Times,serif" font-size="14.00" fill="red">ansible&#45;server</text>
</g>
<!-- n3 -->
<g id="node7" class="node">
<title>n3</title>
<ellipse fill="none" stroke="black" cx="674" cy="-90" rx="50.89" ry="18"/>
<text text-anchor="middle" x="674" y="-86.3" font-family="Times,serif" font-size="14.00" fill="red">platform</text>
</g>
<!-- n4&#45;&gt;n3 -->
<g id="edge2" class="edge">
<title>n4&#45;&gt;n3</title>
<path fill="none" stroke="black" d="M523.37,-146.5C554.59,-134.99 598.2,-118.93 630.47,-107.04"/>
<polygon fill="black" stroke="black" points="631.91,-110.24 640.09,-103.49 629.49,-103.67 631.91,-110.24"/>
</g>
<!-- n1 -->
<g id="node9" class="node">
<title>n1</title>
<ellipse fill="none" stroke="black" cx="750" cy="-18" rx="40.09" ry="18"/>
<text text-anchor="middle" x="750" y="-14.3" font-family="Times,serif" font-size="14.00" fill="red">stacks</text>
</g>
<!-- n4&#45;&gt;n1 -->
<g id="edge1" class="edge">
<title>n4&#45;&gt;n1</title>
<path fill="none" stroke="black" d="M496.96,-144.09C513.15,-124.1 542.67,-91.13 575,-72 614.83,-48.44 666.06,-34.52 702.77,-26.91"/>
<polygon fill="black" stroke="black" points="703.6,-30.31 712.72,-24.93 702.23,-23.45 703.6,-30.31"/>
</g>
<!-- n2 -->
<g id="node2" class="node">
<title>n2</title>
<ellipse fill="none" stroke="black" cx="513" cy="-522" rx="32.49" ry="18"/>
<text text-anchor="middle" x="513" y="-518.3" font-family="Times,serif" font-size="14.00" fill="red">apps</text>
</g>
<!-- n2&#45;&gt;n4 -->
<g id="edge5" class="edge">
<title>n2&#45;&gt;n4</title>
<path fill="none" stroke="black" d="M480.41,-521.54C398.04,-522.13 184.93,-518.63 141,-468 47.84,-360.62 215.02,-287.32 338,-216 365.11,-200.28 397.7,-187.91 425.2,-179.09"/>
<polygon fill="black" stroke="black" points="426.59,-182.32 435.09,-176 424.5,-175.64 426.59,-182.32"/>
</g>
<!-- n5 -->
<g id="node3" class="node">
<title>n5</title>
<ellipse fill="none" stroke="black" cx="556" cy="-234" rx="44.69" ry="18"/>
<text text-anchor="middle" x="556" y="-230.3" font-family="Times,serif" font-size="14.00" fill="red">bastion</text>
</g>
<!-- n2&#45;&gt;n5 -->
<g id="edge6" class="edge">
<title>n2&#45;&gt;n5</title>
<path fill="none" stroke="black" d="M502.49,-504.82C478.15,-465.12 423.11,-360.87 465,-288 475.24,-270.18 494.03,-257.79 511.89,-249.5"/>
<polygon fill="black" stroke="black" points="513.3,-252.71 521.1,-245.53 510.53,-246.28 513.3,-252.71"/>
</g>
<!-- n8 -->
<g id="node4" class="node">
<title>n8</title>
<ellipse fill="none" stroke="black" cx="325" cy="-450" rx="102.88" ry="18"/>
<text text-anchor="middle" x="325" y="-446.3" font-family="Times,serif" font-size="14.00" fill="red">grafana&#45;dashboards</text>
</g>
<!-- n2&#45;&gt;n8 -->
<g id="edge9" class="edge">
<title>n2&#45;&gt;n8</title>
<path fill="none" stroke="black" d="M486.86,-511.27C458.45,-500.69 412.35,-483.52 376.6,-470.21"/>
<polygon fill="black" stroke="black" points="377.4,-466.78 366.81,-466.57 374.96,-473.34 377.4,-466.78"/>
</g>
<!-- n9 -->
<g id="node5" class="node">
<title>n9</title>
<ellipse fill="none" stroke="black" cx="177" cy="-450" rx="27.1" ry="18"/>
<text text-anchor="middle" x="177" y="-446.3" font-family="Times,serif" font-size="14.00" fill="red">loki</text>
</g>
<!-- n2&#45;&gt;n9 -->
<g id="edge10" class="edge">
<title>n2&#45;&gt;n9</title>
<path fill="none" stroke="black" d="M480.8,-518.15C425.13,-512.6 307.75,-498.15 213,-468 211.07,-467.39 209.12,-466.69 207.16,-465.94"/>
<polygon fill="black" stroke="black" points="208.13,-462.55 197.56,-461.86 205.39,-468.99 208.13,-462.55"/>
</g>
<!-- n10 -->
<g id="node6" class="node">
<title>n10</title>
<ellipse fill="none" stroke="black" cx="636" cy="-450" rx="38.19" ry="18"/>
<text text-anchor="middle" x="636" y="-446.3" font-family="Times,serif" font-size="14.00" fill="red">mimir</text>
</g>
<!-- n2&#45;&gt;n10 -->
<g id="edge11" class="edge">
<title>n2&#45;&gt;n10</title>
<path fill="none" stroke="black" d="M534.99,-508.49C554.1,-497.61 582.02,-481.72 603.68,-469.4"/>
<polygon fill="black" stroke="black" points="605.57,-472.35 612.53,-464.36 602.1,-466.26 605.57,-472.35"/>
</g>
<!-- n2&#45;&gt;n3 -->
<g id="edge4" class="edge">
<title>n2&#45;&gt;n3</title>
<path fill="none" stroke="black" d="M480.97,-518.89C398.59,-513.12 181.26,-495.66 115,-468 55.36,-443.1 0,-443.63 0,-379 0,-379 0,-379 0,-305 0,-150.93 160.43,-191.47 307,-144 411.56,-110.14 539.87,-97.87 613.76,-93.45"/>
<polygon fill="black" stroke="black" points="614.03,-96.94 623.82,-92.88 613.64,-89.95 614.03,-96.94"/>
</g>
<!-- n6 -->
<g id="node8" class="node">
<title>n6</title>
<ellipse fill="none" stroke="black" cx="554" cy="-306" rx="69.59" ry="18"/>
<text text-anchor="middle" x="554" y="-302.3" font-family="Times,serif" font-size="14.00" fill="red">platform&#45;k8s</text>
</g>
<!-- n2&#45;&gt;n6 -->
<g id="edge7" class="edge">
<title>n2&#45;&gt;n6</title>
<path fill="none" stroke="black" d="M516.29,-503.85C523.39,-466.75 540.24,-378.81 548.81,-334.1"/>
<polygon fill="black" stroke="black" points="552.25,-334.71 550.7,-324.23 545.38,-333.4 552.25,-334.71"/>
</g>
<!-- n2&#45;&gt;n1 -->
<g id="edge3" class="edge">
<title>n2&#45;&gt;n1</title>
<path fill="none" stroke="black" d="M545.47,-519.17C659.09,-511.91 1032,-480.36 1032,-379 1032,-379 1032,-379 1032,-161 1032,-118.16 1027.9,-99.43 995,-72 965.71,-47.58 861.71,-31.76 799.01,-24.21"/>
<polygon fill="black" stroke="black" points="799.29,-20.71 788.95,-23.02 798.47,-27.67 799.29,-20.71"/>
</g>
<!-- n11 -->
<g id="node10" class="node">
<title>n11</title>
<ellipse fill="none" stroke="black" cx="804" cy="-450" rx="40.09" ry="18"/>
<text text-anchor="middle" x="804" y="-446.3" font-family="Times,serif" font-size="14.00" fill="red">tempo</text>
</g>
<!-- n2&#45;&gt;n11 -->
<g id="edge12" class="edge">
<title>n2&#45;&gt;n11</title>
<path fill="none" stroke="black" d="M542.23,-513.97C593.33,-501.68 699.15,-476.22 759.43,-461.72"/>
<polygon fill="black" stroke="black" points="760.51,-465.06 769.41,-459.32 758.87,-458.26 760.51,-465.06"/>
</g>
<!-- n7 -->
<g id="node11" class="node">
<title>n7</title>
<ellipse fill="none" stroke="black" cx="707" cy="-378" rx="33.29" ry="18"/>
<text text-anchor="middle" x="707" y="-374.3" font-family="Times,serif" font-size="14.00" fill="red">tools</text>
</g>
<!-- n2&#45;&gt;n7 -->
<g id="edge8" class="edge">
<title>n2&#45;&gt;n7</title>
<path fill="none" stroke="black" d="M545.33,-519.9C583.55,-516.82 646.57,-505.88 683,-468 698.82,-451.55 704.46,-425.82 706.36,-406.24"/>
<polygon fill="black" stroke="black" points="709.86,-406.32 707.06,-396.1 702.88,-405.83 709.86,-406.32"/>
</g>
<!-- n5&#45;&gt;n4 -->
<g id="edge15" class="edge">
<title>n5&#45;&gt;n4</title>
<path fill="none" stroke="black" d="M539.66,-217.12C530.38,-208.09 518.58,-196.62 508.24,-186.57"/>
<polygon fill="black" stroke="black" points="510.63,-184.01 501.02,-179.55 505.75,-189.03 510.63,-184.01"/>
</g>
<!-- n5&#45;&gt;n3 -->
<g id="edge14" class="edge">
<title>n5&#45;&gt;n3</title>
<path fill="none" stroke="black" d="M570.62,-216.95C580.01,-206.54 592.39,-192.61 603,-180 620.93,-158.68 640.64,-133.86 654.73,-115.86"/>
<polygon fill="black" stroke="black" points="657.77,-117.65 661.17,-107.61 652.26,-113.34 657.77,-117.65"/>
</g>
<!-- n5&#45;&gt;n1 -->
<g id="edge13" class="edge">
<title>n5&#45;&gt;n1</title>
<path fill="none" stroke="black" d="M561.26,-215.97C573.47,-176.77 603.53,-82.75 614,-72 637.57,-47.81 673.46,-34.44 702.46,-27.18"/>
<polygon fill="black" stroke="black" points="703.45,-30.55 712.39,-24.86 701.86,-23.73 703.45,-30.55"/>
</g>
<!-- n8&#45;&gt;n4 -->
<g id="edge18" class="edge">
<title>n8&#45;&gt;n4</title>
<path fill="none" stroke="black" d="M325.5,-431.95C326.41,-413.79 328.94,-384.37 336,-360 357.14,-287.04 420.16,-220.51 456.79,-186.6"/>
<polygon fill="black" stroke="black" points="459.58,-188.79 464.62,-179.47 454.87,-183.62 459.58,-188.79"/>
</g>
<!-- n8&#45;&gt;n5 -->
<g id="edge19" class="edge">
<title>n8&#45;&gt;n5</title>
<path fill="none" stroke="black" d="M328.83,-431.79C336.96,-399.12 359.02,-327.85 404,-288 431.93,-263.25 472.09,-249.9 504.11,-242.79"/>
<polygon fill="black" stroke="black" points="505.12,-246.15 514.2,-240.69 503.69,-239.3 505.12,-246.15"/>
</g>
<!-- n8&#45;&gt;n3 -->
<g id="edge17" class="edge">
<title>n8&#45;&gt;n3</title>
<path fill="none" stroke="black" d="M322.95,-431.71C317.77,-378.94 310.24,-218.98 398,-144 429.91,-116.74 543.58,-102.18 614.71,-95.57"/>
<polygon fill="black" stroke="black" points="615.23,-99.03 624.88,-94.65 614.6,-92.06 615.23,-99.03"/>
</g>
<!-- n8&#45;&gt;n6 -->
<g id="edge20" class="edge">
<title>n8&#45;&gt;n6</title>
<path fill="none" stroke="black" d="M360.99,-433.05C382.14,-423.21 409.13,-409.87 432,-396 465.49,-375.69 501.44,-348.78 525.57,-329.89"/>
<polygon fill="black" stroke="black" points="527.91,-332.5 533.59,-323.56 523.57,-327 527.91,-332.5"/>
</g>
<!-- n8&#45;&gt;n1 -->
<g id="edge16" class="edge">
<title>n8&#45;&gt;n1</title>
<path fill="none" stroke="black" d="M320.84,-431.74C309.43,-379.74 283.62,-223.28 364,-144 457.18,-52.1 618.44,-27.75 699.87,-21.31"/>
<polygon fill="black" stroke="black" points="700.15,-24.8 709.87,-20.58 699.64,-17.82 700.15,-24.8"/>
</g>
<!-- n8&#45;&gt;n7 -->
<g id="edge21" class="edge">
<title>n8&#45;&gt;n7</title>
<path fill="none" stroke="black" d="M393.29,-436.49C472.54,-421.96 600.64,-398.49 665.92,-386.53"/>
<polygon fill="black" stroke="black" points="666.63,-389.96 675.84,-384.71 665.37,-383.07 666.63,-389.96"/>
</g>
<!-- n9&#45;&gt;n4 -->
<g id="edge24" class="edge">
<title>n9&#45;&gt;n4</title>
<path fill="none" stroke="black" d="M183.94,-432.52C192.27,-413.8 207.48,-382.91 226,-360 287.4,-284.04 312.43,-272.64 392,-216 408.6,-204.19 428.01,-192.69 444.72,-183.45"/>
<polygon fill="black" stroke="black" points="446.59,-186.42 453.69,-178.55 443.23,-180.27 446.59,-186.42"/>
</g>
<!-- n9&#45;&gt;n5 -->
<g id="edge25" class="edge">
<title>n9&#45;&gt;n5</title>
<path fill="none" stroke="black" d="M190.47,-434.17C219.94,-402.61 293.62,-328.39 370,-288 412.78,-265.38 466.34,-251.43 504.99,-243.56"/>
<polygon fill="black" stroke="black" points="505.84,-246.96 514.97,-241.59 504.48,-240.09 505.84,-246.96"/>
</g>
<!-- n9&#45;&gt;n3 -->
<g id="edge23" class="edge">
<title>n9&#45;&gt;n3</title>
<path fill="none" stroke="black" d="M178.86,-431.89C181.35,-413.43 186.83,-383.52 198,-360 249.95,-250.64 260.31,-206.5 364,-144 405.28,-119.12 537.1,-103.34 614.91,-95.95"/>
<polygon fill="black" stroke="black" points="615.42,-99.42 625.06,-95.01 614.78,-92.45 615.42,-99.42"/>
</g>
<!-- n9&#45;&gt;n6 -->
<g id="edge26" class="edge">
<title>n9&#45;&gt;n6</title>
<path fill="none" stroke="black" d="M198.18,-438.61C203.01,-436.35 208.15,-434.03 213,-432 314.73,-389.43 436.62,-346.69 503.64,-323.87"/>
<polygon fill="black" stroke="black" points="504.78,-327.18 513.12,-320.65 502.53,-320.55 504.78,-327.18"/>
</g>
<!-- n9&#45;&gt;n1 -->
<g id="edge22" class="edge">
<title>n9&#45;&gt;n1</title>
<path fill="none" stroke="black" d="M160.23,-435.71C123.26,-404.78 38,-323.83 38,-235 38,-235 38,-235 38,-161 38,-25.95 536.91,-17.49 699.47,-18.33"/>
<polygon fill="black" stroke="black" points="699.66,-21.83 709.68,-18.39 699.7,-14.83 699.66,-21.83"/>
</g>
<!-- n9&#45;&gt;n7 -->
<g id="edge27" class="edge">
<title>n9&#45;&gt;n7</title>
<path fill="none" stroke="black" d="M197.48,-437.89C202.44,-435.61 207.81,-433.46 213,-432 297.5,-408.25 559.84,-388.77 663.87,-381.78"/>
<polygon fill="black" stroke="black" points="664.27,-385.26 674.01,-381.1 663.8,-378.27 664.27,-385.26"/>
</g>
<!-- n10&#45;&gt;n4 -->
<g id="edge30" class="edge">
<title>n10&#45;&gt;n4</title>
<path fill="none" stroke="black" d="M600.23,-443.3C569.44,-436.71 525.59,-423.09 497,-396 440.71,-342.67 461.32,-238.85 475.31,-189.84"/>
<polygon fill="black" stroke="black" points="478.66,-190.84 478.16,-180.26 471.96,-188.84 478.66,-190.84"/>
</g>
<!-- n10&#45;&gt;n5 -->
<g id="edge31" class="edge">
<title>n10&#45;&gt;n5</title>
<path fill="none" stroke="black" d="M608.63,-437.32C570.47,-419.34 502.85,-380.89 475,-324 467.96,-309.63 467.39,-302.07 475,-288 483.69,-271.94 499.59,-259.96 515.03,-251.49"/>
<polygon fill="black" stroke="black" points="516.69,-254.58 524,-246.91 513.5,-248.34 516.69,-254.58"/>
</g>
<!-- n10&#45;&gt;n3 -->
<g id="edge29" class="edge">
<title>n10&#45;&gt;n3</title>
<path fill="none" stroke="black" d="M671.26,-442.84C697.66,-436.18 732.03,-422.7 749,-396 807.18,-304.45 729.66,-171.02 692.2,-116.07"/>
<polygon fill="black" stroke="black" points="694.92,-113.86 686.34,-107.64 689.17,-117.85 694.92,-113.86"/>
</g>
<!-- n10&#45;&gt;n6 -->
<g id="edge32" class="edge">
<title>n10&#45;&gt;n6</title>
<path fill="none" stroke="black" d="M626.43,-432.43C612.25,-407.88 585.53,-361.6 568.81,-332.65"/>
<polygon fill="black" stroke="black" points="571.79,-330.81 563.76,-323.9 565.73,-334.31 571.79,-330.81"/>
</g>
<!-- n10&#45;&gt;n1 -->
<g id="edge28" class="edge">
<title>n10&#45;&gt;n1</title>
<path fill="none" stroke="black" d="M669.94,-441.55C752.3,-422.49 956,-369.07 956,-307 956,-307 956,-307 956,-161 956,-83.64 856.31,-45.2 795.63,-28.96"/>
<polygon fill="black" stroke="black" points="796.44,-25.55 785.88,-26.45 794.69,-32.33 796.44,-25.55"/>
</g>
<!-- n10&#45;&gt;n7 -->
<g id="edge33" class="edge">
<title>n10&#45;&gt;n7</title>
<path fill="none" stroke="black" d="M651.76,-433.46C661.36,-424 673.78,-411.75 684.41,-401.27"/>
<polygon fill="black" stroke="black" points="687.11,-403.52 691.77,-394.01 682.2,-398.54 687.11,-403.52"/>
</g>
<!-- n3&#45;&gt;n1 -->
<g id="edge34" class="edge">
<title>n3&#45;&gt;n1</title>
<path fill="none" stroke="black" d="M691.63,-72.76C701.72,-63.47 714.53,-51.67 725.58,-41.49"/>
<polygon fill="black" stroke="black" points="728.27,-43.78 733.25,-34.43 723.52,-38.63 728.27,-43.78"/>
</g>
<!-- n6&#45;&gt;n4 -->
<g id="edge37" class="edge">
<title>n6&#45;&gt;n4</title>
<path fill="none" stroke="black" d="M533.02,-288.75C522.13,-279.2 509.55,-266.23 502,-252 491.81,-232.79 487.38,-208.45 485.45,-190.07"/>
<polygon fill="black" stroke="black" points="488.93,-189.69 484.59,-180.03 481.96,-190.3 488.93,-189.69"/>
</g>
<!-- n6&#45;&gt;n5 -->
<g id="edge38" class="edge">
<title>n6&#45;&gt;n5</title>
<path fill="none" stroke="black" d="M554.49,-287.7C554.71,-279.98 554.98,-270.71 555.23,-262.11"/>
<polygon fill="black" stroke="black" points="558.72,-262.2 555.51,-252.1 551.73,-262 558.72,-262.2"/>
</g>
<!-- n6&#45;&gt;n3 -->
<g id="edge36" class="edge">
<title>n6&#45;&gt;n3</title>
<path fill="none" stroke="black" d="M575.34,-288.68C586.82,-279.02 600.54,-265.96 610,-252 638.93,-209.31 657.82,-151.59 667.14,-118.12"/>
<polygon fill="black" stroke="black" points="670.6,-118.72 669.83,-108.15 663.84,-116.89 670.6,-118.72"/>
</g>
<!-- n6&#45;&gt;n1 -->
<g id="edge35" class="edge">
<title>n6&#45;&gt;n1</title>
<path fill="none" stroke="black" d="M582.95,-289.46C599.07,-279.96 618.88,-266.8 634,-252 689.7,-197.51 704.2,-180 734,-108 742.19,-88.21 746.2,-64.23 748.15,-46.15"/>
<polygon fill="black" stroke="black" points="751.65,-46.29 749.1,-36 744.68,-45.63 751.65,-46.29"/>
</g>
<!-- n11&#45;&gt;n4 -->
<g id="edge41" class="edge">
<title>n11&#45;&gt;n4</title>
<path fill="none" stroke="black" d="M800.79,-432.01C796.75,-413.38 788.65,-383.08 775,-360 730.34,-284.49 713.74,-263.53 640,-216 612.35,-198.18 578.06,-185.67 548.68,-177.3"/>
<polygon fill="black" stroke="black" points="549.49,-173.9 538.92,-174.62 547.64,-180.65 549.49,-173.9"/>
</g>
<!-- n11&#45;&gt;n5 -->
<g id="edge42" class="edge">
<title>n11&#45;&gt;n5</title>
<path fill="none" stroke="black" d="M795.7,-432.19C786,-413.45 768.74,-382.79 749,-360 716.37,-322.32 704.74,-315.25 663,-288 641.63,-274.04 616.06,-261.25 595.27,-251.73"/>
<polygon fill="black" stroke="black" points="596.65,-248.51 586.09,-247.59 593.77,-254.89 596.65,-248.51"/>
</g>
<!-- n11&#45;&gt;n3 -->
<g id="edge40" class="edge">
<title>n11&#45;&gt;n3</title>
<path fill="none" stroke="black" d="M804.57,-431.91C805.35,-382.3 801.47,-236 734,-144 725.55,-132.48 714.21,-121.66 703.67,-112.85"/>
<polygon fill="black" stroke="black" points="705.8,-110.07 695.82,-106.51 701.41,-115.52 705.8,-110.07"/>
</g>
<!-- n11&#45;&gt;n6 -->
<g id="edge43" class="edge">
<title>n11&#45;&gt;n6</title>
<path fill="none" stroke="black" d="M770.97,-439.61C741.96,-430.63 699.18,-415.57 665,-396 632.74,-377.53 600.04,-350.01 578.57,-330.47"/>
<polygon fill="black" stroke="black" points="580.92,-327.87 571.19,-323.66 576.17,-333.02 580.92,-327.87"/>
</g>
<!-- n11&#45;&gt;n1 -->
<g id="edge39" class="edge">
<title>n11&#45;&gt;n1</title>
<path fill="none" stroke="black" d="M843.84,-446.84C881.49,-442.65 936.98,-430.56 970,-396 998.3,-366.38 994,-347.97 994,-307 994,-307 994,-307 994,-161 994,-120.03 999.36,-100.58 970,-72 945.9,-48.54 855.62,-32.75 798.47,-24.87"/>
<polygon fill="black" stroke="black" points="798.94,-21.4 788.56,-23.54 798,-28.34 798.94,-21.4"/>
</g>
<!-- n11&#45;&gt;n7 -->
<g id="edge44" class="edge">
<title>n11&#45;&gt;n7</title>
<path fill="none" stroke="black" d="M783.43,-434.15C769.16,-423.86 750.01,-410.04 734.45,-398.81"/>
<polygon fill="black" stroke="black" points="736.38,-395.89 726.22,-392.87 732.28,-401.56 736.38,-395.89"/>
</g>
<!-- n7&#45;&gt;n4 -->
<g id="edge47" class="edge">
<title>n7&#45;&gt;n4</title>
<path fill="none" stroke="black" d="M701.44,-360.14C689.79,-327.43 659.73,-255.17 610,-216 589.77,-200.07 564.06,-188.12 541.14,-179.64"/>
<polygon fill="black" stroke="black" points="542.11,-176.27 531.51,-176.22 539.76,-182.87 542.11,-176.27"/>
</g>
<!-- n7&#45;&gt;n5 -->
<g id="edge48" class="edge">
<title>n7&#45;&gt;n5</title>
<path fill="none" stroke="black" d="M695.62,-360.75C682.01,-341.98 657.93,-310.76 633,-288 619.5,-275.68 602.98,-263.94 588.7,-254.65"/>
<polygon fill="black" stroke="black" points="590.47,-251.63 580.15,-249.21 586.71,-257.53 590.47,-251.63"/>
</g>
<!-- n7&#45;&gt;n3 -->
<g id="edge46" class="edge">
<title>n7&#45;&gt;n3</title>
<path fill="none" stroke="black" d="M705.03,-359.97C699.52,-312.19 683.88,-176.62 677.15,-118.27"/>
<polygon fill="black" stroke="black" points="680.62,-117.84 676,-108.31 673.67,-118.64 680.62,-117.84"/>
</g>
<!-- n7&#45;&gt;n6 -->
<g id="edge49" class="edge">
<title>n7&#45;&gt;n6</title>
<path fill="none" stroke="black" d="M682.42,-365.75C659.22,-355.14 623.96,-339.01 596.26,-326.33"/>
<polygon fill="black" stroke="black" points="597.35,-322.99 586.8,-322.01 594.44,-329.35 597.35,-322.99"/>
</g>
<!-- n7&#45;&gt;n1 -->
<g id="edge45" class="edge">
<title>n7&#45;&gt;n1</title>
<path fill="none" stroke="black" d="M710.98,-359.82C720.59,-317.39 744.84,-204.07 753,-108 754.75,-87.33 753.85,-63.89 752.58,-46.25"/>
<polygon fill="black" stroke="black" points="756.06,-45.78 751.77,-36.09 749.08,-46.34 756.06,-45.78"/>
</g>
</g>
</svg>
