<?xml version="1.0" encoding="UTF-8" standalone="no"?>
<!DOCTYPE svg PUBLIC "-//W3C//DTD SVG 1.1//EN"
 "http://www.w3.org/Graphics/SVG/1.1/DTD/svg11.dtd">
<!-- Generated by graphviz version 2.43.0 (0)
 -->
<!-- Title: %3 Pages: 1 -->
<svg width="888pt" height="548pt"
 viewBox="0.00 0.00 888.00 548.00" xmlns="http://www.w3.org/2000/svg" xmlns:xlink="http://www.w3.org/1999/xlink">
<g id="graph0" class="graph" transform="scale(1 1) rotate(0) translate(4 544)">
<title>%3</title>
<polygon fill="white" stroke="transparent" points="-4,4 -4,-544 884,-544 884,4 -4,4"/>
<!-- n4 -->
<g id="node1" class="node">
<title>n4</title>
<ellipse fill="none" stroke="black" cx="520" cy="-162" rx="76.89" ry="18"/>
<text text-anchor="middle" x="520" y="-158.3" font-family="Times,serif" font-size="14.00" fill="red">ansible&#45;server</text>
</g>
<!-- n3 -->
<g id="node7" class="node">
<title>n3</title>
<ellipse fill="none" stroke="black" cx="298" cy="-90" rx="50.89" ry="18"/>
<text text-anchor="middle" x="298" y="-86.3" font-family="Times,serif" font-size="14.00" fill="red">platform</text>
</g>
<!-- n4&#45;&gt;n3 -->
<g id="edge2" class="edge">
<title>n4&#45;&gt;n3</title>
<path fill="none" stroke="black" d="M476.14,-147.17C438.21,-135.21 383.52,-117.97 344.77,-105.75"/>
<polygon fill="black" stroke="black" points="345.37,-102.27 334.78,-102.6 343.27,-108.94 345.37,-102.27"/>
</g>
<!-- n1 -->
<g id="node9" class="node">
<title>n1</title>
<ellipse fill="none" stroke="black" cx="520" cy="-18" rx="40.09" ry="18"/>
<text text-anchor="middle" x="520" y="-14.3" font-family="Times,serif" font-size="14.00" fill="red">stacks</text>
</g>
<!-- n4&#45;&gt;n1 -->
<g id="edge1" class="edge">
<title>n4&#45;&gt;n1</title>
<path fill="none" stroke="black" d="M520,-143.87C520,-119.67 520,-75.21 520,-46.39"/>
<polygon fill="black" stroke="black" points="523.5,-46.19 520,-36.19 516.5,-46.19 523.5,-46.19"/>
</g>
<!-- n2 -->
<g id="node2" class="node">
<title>n2</title>
<ellipse fill="none" stroke="black" cx="479" cy="-522" rx="32.49" ry="18"/>
<text text-anchor="middle" x="479" y="-518.3" font-family="Times,serif" font-size="14.00" fill="red">apps</text>
</g>
<!-- n2&#45;&gt;n4 -->
<g id="edge5" class="edge">
<title>n2&#45;&gt;n4</title>
<path fill="none" stroke="black" d="M511.59,-520.38C582.79,-518.27 748.57,-508.96 783,-468 857.6,-379.27 958.32,-499.76 624,-216 607.48,-201.98 586.61,-190.42 567.92,-181.72"/>
<polygon fill="black" stroke="black" points="569.21,-178.46 558.66,-177.55 566.34,-184.85 569.21,-178.46"/>
</g>
<!-- n5 -->
<g id="node3" class="node">
<title>n5</title>
<ellipse fill="none" stroke="black" cx="377" cy="-234" rx="44.69" ry="18"/>
<text text-anchor="middle" x="377" y="-230.3" font-family="Times,serif" font-size="14.00" fill="red">bastion</text>
</g>
<!-- n2&#45;&gt;n5 -->
<g id="edge6" class="edge">
<title>n2&#45;&gt;n5</title>
<path fill="none" stroke="black" d="M472.92,-503.97C455.81,-455.98 407.11,-319.41 386.45,-261.49"/>
<polygon fill="black" stroke="black" points="389.7,-260.19 383.04,-251.94 383.11,-262.54 389.7,-260.19"/>
</g>
<!-- n8 -->
<g id="node4" class="node">
<title>n8</title>
<ellipse fill="none" stroke="black" cx="671" cy="-450" rx="102.88" ry="18"/>
<text text-anchor="middle" x="671" y="-446.3" font-family="Times,serif" font-size="14.00" fill="red">grafana&#45;dashboards</text>
</g>
<!-- n2&#45;&gt;n8 -->
<g id="edge9" class="edge">
<title>n2&#45;&gt;n8</title>
<path fill="none" stroke="black" d="M505.29,-511.41C534.43,-500.79 582.14,-483.4 618.9,-469.99"/>
<polygon fill="black" stroke="black" points="620.28,-473.22 628.48,-466.5 617.88,-466.64 620.28,-473.22"/>
</g>
<!-- n9 -->
<g id="node5" class="node">
<title>n9</title>
<ellipse fill="none" stroke="black" cx="342" cy="-450" rx="27.1" ry="18"/>
<text text-anchor="middle" x="342" y="-446.3" font-family="Times,serif" font-size="14.00" fill="red">loki</text>
</g>
<!-- n2&#45;&gt;n9 -->
<g id="edge10" class="edge">
<title>n2&#45;&gt;n9</title>
<path fill="none" stroke="black" d="M455.76,-509.13C432.74,-497.37 397.39,-479.3 372.21,-466.43"/>
<polygon fill="black" stroke="black" points="373.6,-463.21 363.1,-461.78 370.41,-469.45 373.6,-463.21"/>
</g>
<!-- n10 -->
<g id="node6" class="node">
<title>n10</title>
<ellipse fill="none" stroke="black" cx="152" cy="-450" rx="38.19" ry="18"/>
<text text-anchor="middle" x="152" y="-446.3" font-family="Times,serif" font-size="14.00" fill="red">mimir</text>
</g>
<!-- n2&#45;&gt;n10 -->
<g id="edge11" class="edge">
<title>n2&#45;&gt;n10</title>
<path fill="none" stroke="black" d="M449.11,-514.6C391.23,-502.21 263.58,-474.89 195.99,-460.42"/>
<polygon fill="black" stroke="black" points="196.58,-456.96 186.07,-458.29 195.11,-463.81 196.58,-456.96"/>
</g>
<!-- n2&#45;&gt;n3 -->
<g id="edge4" class="edge">
<title>n2&#45;&gt;n3</title>
<path fill="none" stroke="black" d="M446.69,-519.57C366.89,-515.53 162.75,-502.08 105,-468 62.36,-442.84 38,-428.51 38,-379 38,-379 38,-379 38,-233 38,-141.69 163.04,-108.74 239.69,-97.11"/>
<polygon fill="black" stroke="black" points="240.31,-100.56 249.71,-95.67 239.31,-93.63 240.31,-100.56"/>
</g>
<!-- n6 -->
<g id="node8" class="node">
<title>n6</title>
<ellipse fill="none" stroke="black" cx="516" cy="-306" rx="69.59" ry="18"/>
<text text-anchor="middle" x="516" y="-302.3" font-family="Times,serif" font-size="14.00" fill="red">platform&#45;k8s</text>
</g>
<!-- n2&#45;&gt;n6 -->
<g id="edge7" class="edge">
<title>n2&#45;&gt;n6</title>
<path fill="none" stroke="black" d="M486.49,-504.46C496.69,-480.94 514.42,-436.22 521,-396 523.58,-380.21 521.75,-375.98 521,-360 520.61,-351.66 519.87,-342.6 519.08,-334.37"/>
<polygon fill="black" stroke="black" points="522.53,-333.75 518.03,-324.16 515.57,-334.46 522.53,-333.75"/>
</g>
<!-- n2&#45;&gt;n1 -->
<g id="edge3" class="edge">
<title>n2&#45;&gt;n1</title>
<path fill="none" stroke="black" d="M511.24,-519.34C586.42,-514.96 770.81,-501.05 822,-468 861.67,-442.39 880,-426.21 880,-379 880,-379 880,-379 880,-161 880,-114.27 862.81,-98.04 824,-72 783.21,-44.63 644.87,-29.28 569.67,-22.77"/>
<polygon fill="black" stroke="black" points="569.75,-19.26 559.49,-21.91 569.16,-26.24 569.75,-19.26"/>
</g>
<!-- n7 -->
<g id="node10" class="node">
<title>n7</title>
<ellipse fill="none" stroke="black" cx="479" cy="-378" rx="33.29" ry="18"/>
<text text-anchor="middle" x="479" y="-374.3" font-family="Times,serif" font-size="14.00" fill="red">tools</text>
</g>
<!-- n2&#45;&gt;n7 -->
<g id="edge8" class="edge">
<title>n2&#45;&gt;n7</title>
<path fill="none" stroke="black" d="M479,-503.87C479,-479.67 479,-435.21 479,-406.39"/>
<polygon fill="black" stroke="black" points="482.5,-406.19 479,-396.19 475.5,-406.19 482.5,-406.19"/>
</g>
<!-- n5&#45;&gt;n4 -->
<g id="edge14" class="edge">
<title>n5&#45;&gt;n4</title>
<path fill="none" stroke="black" d="M404.23,-219.67C425.41,-209.3 455.13,-194.76 479.15,-183"/>
<polygon fill="black" stroke="black" points="480.94,-186.02 488.38,-178.48 477.86,-179.73 480.94,-186.02"/>
</g>
<!-- n5&#45;&gt;n3 -->
<g id="edge13" class="edge">
<title>n5&#45;&gt;n3</title>
<path fill="none" stroke="black" d="M367.63,-216.15C353.97,-191.6 328.47,-145.77 312.41,-116.91"/>
<polygon fill="black" stroke="black" points="315.28,-114.86 307.36,-107.82 309.16,-118.27 315.28,-114.86"/>
</g>
<!-- n5&#45;&gt;n1 -->
<g id="edge12" class="edge">
<title>n5&#45;&gt;n1</title>
<path fill="none" stroke="black" d="M387.55,-216.16C398.87,-198.18 417.46,-168.92 434,-144 457.33,-108.86 485.12,-68.78 502.66,-43.68"/>
<polygon fill="black" stroke="black" points="505.55,-45.66 508.42,-35.46 499.82,-41.65 505.55,-45.66"/>
</g>
<!-- n8&#45;&gt;n4 -->
<g id="edge17" class="edge">
<title>n8&#45;&gt;n4</title>
<path fill="none" stroke="black" d="M671.99,-431.97C672.59,-413.83 672.28,-384.43 666,-360 648.34,-291.26 643.12,-269.94 597,-216 586.36,-203.55 572.14,-192.69 558.83,-184.09"/>
<polygon fill="black" stroke="black" points="560.59,-181.06 550.25,-178.77 556.9,-187.01 560.59,-181.06"/>
</g>
<!-- n8&#45;&gt;n5 -->
<g id="edge18" class="edge">
<title>n8&#45;&gt;n5</title>
<path fill="none" stroke="black" d="M667.96,-431.91C661.15,-398.82 641.47,-325.9 595,-288 548.88,-250.39 480.16,-238.79 432.24,-235.56"/>
<polygon fill="black" stroke="black" points="432.23,-232.05 422.05,-234.97 431.83,-239.04 432.23,-232.05"/>
</g>
<!-- n8&#45;&gt;n3 -->
<g id="edge16" class="edge">
<title>n8&#45;&gt;n3</title>
<path fill="none" stroke="black" d="M675.46,-431.95C677.94,-421.63 680.75,-408.15 682,-396 683.63,-380.08 683.95,-375.88 682,-360 669.57,-258.99 685.19,-207.92 606,-144 568.78,-113.95 436.7,-100.15 358.11,-94.47"/>
<polygon fill="black" stroke="black" points="358.08,-90.96 347.86,-93.76 357.59,-97.95 358.08,-90.96"/>
</g>
<!-- n8&#45;&gt;n6 -->
<g id="edge19" class="edge">
<title>n8&#45;&gt;n6</title>
<path fill="none" stroke="black" d="M652.61,-432.15C625.11,-406.96 573.16,-359.37 541.85,-330.68"/>
<polygon fill="black" stroke="black" points="544.1,-328 534.37,-323.82 539.37,-333.16 544.1,-328"/>
</g>
<!-- n8&#45;&gt;n1 -->
<g id="edge15" class="edge">
<title>n8&#45;&gt;n1</title>
<path fill="none" stroke="black" d="M716.38,-433.72C767.04,-413.45 842,-372.41 842,-307 842,-307 842,-307 842,-161 842,-43.78 661.15,-22.5 570.52,-19.2"/>
<polygon fill="black" stroke="black" points="570.56,-15.7 560.46,-18.89 570.34,-22.7 570.56,-15.7"/>
</g>
<!-- n8&#45;&gt;n7 -->
<g id="edge20" class="edge">
<title>n8&#45;&gt;n7</title>
<path fill="none" stroke="black" d="M628.39,-433.46C594.45,-421.09 547.45,-403.96 515.29,-392.23"/>
<polygon fill="black" stroke="black" points="516.41,-388.91 505.81,-388.78 514.01,-395.49 516.41,-388.91"/>
</g>
<!-- n9&#45;&gt;n4 -->
<g id="edge23" class="edge">
<title>n9&#45;&gt;n4</title>
<path fill="none" stroke="black" d="M333.87,-432.5C314.81,-391.19 272.51,-281.87 323,-216 338.17,-196.21 396.24,-182.16 445.44,-173.52"/>
<polygon fill="black" stroke="black" points="446.2,-176.94 455.47,-171.81 445.02,-170.04 446.2,-176.94"/>
</g>
<!-- n9&#45;&gt;n5 -->
<g id="edge24" class="edge">
<title>n9&#45;&gt;n5</title>
<path fill="none" stroke="black" d="M344.21,-432.03C348.11,-402.62 356.68,-340.31 366,-288 367.51,-279.54 369.34,-270.37 371.07,-262.07"/>
<polygon fill="black" stroke="black" points="374.53,-262.65 373.19,-252.14 367.68,-261.19 374.53,-262.65"/>
</g>
<!-- n9&#45;&gt;n3 -->
<g id="edge22" class="edge">
<title>n9&#45;&gt;n3</title>
<path fill="none" stroke="black" d="M328.05,-434.52C319.31,-424.52 308.65,-410.47 303,-396 265.32,-299.58 282.27,-172.59 292.39,-117.92"/>
<polygon fill="black" stroke="black" points="295.85,-118.46 294.3,-107.98 288.97,-117.14 295.85,-118.46"/>
</g>
<!-- n9&#45;&gt;n6 -->
<g id="edge25" class="edge">
<title>n9&#45;&gt;n6</title>
<path fill="none" stroke="black" d="M356.15,-434.36C374.15,-416.05 406.58,-384.2 437,-360 451.02,-348.85 467.35,-337.63 481.51,-328.4"/>
<polygon fill="black" stroke="black" points="483.49,-331.29 490,-322.94 479.7,-325.41 483.49,-331.29"/>
</g>
<!-- n9&#45;&gt;n1 -->
<g id="edge21" class="edge">
<title>n9&#45;&gt;n1</title>
<path fill="none" stroke="black" d="M323.7,-436.33C311.31,-426.73 295.68,-412.41 287,-396 218.95,-267.24 145.01,-184.09 238,-72 266.87,-37.19 396.65,-25.1 469.67,-21.01"/>
<polygon fill="black" stroke="black" points="470.21,-24.48 480.01,-20.46 469.84,-17.49 470.21,-24.48"/>
</g>
<!-- n9&#45;&gt;n7 -->
<g id="edge26" class="edge">
<title>n9&#45;&gt;n7</title>
<path fill="none" stroke="black" d="M363.11,-438.22C385.3,-426.88 420.51,-408.88 446.3,-395.71"/>
<polygon fill="black" stroke="black" points="448.03,-398.76 455.34,-391.09 444.84,-392.52 448.03,-398.76"/>
</g>
<!-- n10&#45;&gt;n4 -->
<g id="edge29" class="edge">
<title>n10&#45;&gt;n4</title>
<path fill="none" stroke="black" d="M157.65,-431.95C173.03,-388.37 220,-272.34 301,-216 340.7,-188.39 393.13,-175.08 436.73,-168.71"/>
<polygon fill="black" stroke="black" points="437.31,-172.16 446.75,-167.34 436.37,-165.23 437.31,-172.16"/>
</g>
<!-- n10&#45;&gt;n5 -->
<g id="edge30" class="edge">
<title>n10&#45;&gt;n5</title>
<path fill="none" stroke="black" d="M168.18,-433.61C207.23,-396.47 306.82,-301.75 352.92,-257.91"/>
<polygon fill="black" stroke="black" points="355.52,-260.26 360.36,-250.83 350.7,-255.18 355.52,-260.26"/>
</g>
<!-- n10&#45;&gt;n3 -->
<g id="edge28" class="edge">
<title>n10&#45;&gt;n3</title>
<path fill="none" stroke="black" d="M153.41,-431.93C155.26,-413.75 159.21,-384.32 167,-360 197.1,-266.05 254.64,-163.45 282.34,-116.74"/>
<polygon fill="black" stroke="black" points="285.49,-118.28 287.62,-107.9 279.48,-114.69 285.49,-118.28"/>
</g>
<!-- n10&#45;&gt;n6 -->
<g id="edge31" class="edge">
<title>n10&#45;&gt;n6</title>
<path fill="none" stroke="black" d="M180.56,-437.86C243.24,-413.4 393.34,-354.85 469.69,-325.06"/>
<polygon fill="black" stroke="black" points="471.03,-328.3 479.07,-321.41 468.49,-321.78 471.03,-328.3"/>
</g>
<!-- n10&#45;&gt;n1 -->
<g id="edge27" class="edge">
<title>n10&#45;&gt;n1</title>
<path fill="none" stroke="black" d="M123.41,-437.71C79.38,-418.21 0,-373.81 0,-307 0,-307 0,-307 0,-161 0,-64.19 339.65,-31.11 469.95,-21.98"/>
<polygon fill="black" stroke="black" points="470.32,-25.47 480.06,-21.29 469.84,-18.48 470.32,-25.47"/>
</g>
<!-- n10&#45;&gt;n7 -->
<g id="edge32" class="edge">
<title>n10&#45;&gt;n7</title>
<path fill="none" stroke="black" d="M186.07,-441.71C246.78,-428.71 373.4,-401.61 438.47,-387.68"/>
<polygon fill="black" stroke="black" points="439.32,-391.07 448.37,-385.56 437.86,-384.23 439.32,-391.07"/>
</g>
<!-- n3&#45;&gt;n1 -->
<g id="edge33" class="edge">
<title>n3&#45;&gt;n1</title>
<path fill="none" stroke="black" d="M334.66,-77.44C374.14,-64.99 436.84,-45.22 478.2,-32.18"/>
<polygon fill="black" stroke="black" points="479.49,-35.44 487.97,-29.1 477.39,-28.77 479.49,-35.44"/>
</g>
<!-- n6&#45;&gt;n4 -->
<g id="edge36" class="edge">
<title>n6&#45;&gt;n4</title>
<path fill="none" stroke="black" d="M516.48,-287.87C517.16,-263.67 518.42,-219.21 519.23,-190.39"/>
<polygon fill="black" stroke="black" points="522.73,-190.28 519.52,-180.19 515.74,-190.09 522.73,-190.28"/>
</g>
<!-- n6&#45;&gt;n5 -->
<g id="edge37" class="edge">
<title>n6&#45;&gt;n5</title>
<path fill="none" stroke="black" d="M485.5,-289.64C464.24,-278.93 435.78,-264.6 413.35,-253.31"/>
<polygon fill="black" stroke="black" points="414.65,-250.04 404.14,-248.67 411.5,-256.29 414.65,-250.04"/>
</g>
<!-- n6&#45;&gt;n3 -->
<g id="edge35" class="edge">
<title>n6&#45;&gt;n3</title>
<path fill="none" stroke="black" d="M500.6,-288.34C483.76,-270.26 455.88,-240.68 431,-216 394.35,-179.64 350.48,-138.94 323.43,-114.14"/>
<polygon fill="black" stroke="black" points="325.67,-111.45 315.93,-107.28 320.95,-116.61 325.67,-111.45"/>
</g>
<!-- n6&#45;&gt;n1 -->
<g id="edge34" class="edge">
<title>n6&#45;&gt;n1</title>
<path fill="none" stroke="black" d="M533.39,-288.37C555.27,-266.12 591.72,-224.28 606,-180 623.04,-127.17 576.5,-71.27 545.41,-41.22"/>
<polygon fill="black" stroke="black" points="547.57,-38.45 537.89,-34.16 542.78,-43.56 547.57,-38.45"/>
</g>
<!-- n7&#45;&gt;n4 -->
<g id="edge40" class="edge">
<title>n7&#45;&gt;n4</title>
<path fill="none" stroke="black" d="M510.52,-372.18C538.09,-366.13 576.51,-352.78 595,-324 624.32,-278.37 577.94,-219.43 546.05,-187.02"/>
<polygon fill="black" stroke="black" points="548.27,-184.3 538.7,-179.76 543.35,-189.28 548.27,-184.3"/>
</g>
<!-- n7&#45;&gt;n5 -->
<g id="edge41" class="edge">
<title>n7&#45;&gt;n5</title>
<path fill="none" stroke="black" d="M465.8,-361.01C457.36,-350.62 446.29,-336.7 437,-324 421.63,-303 405.18,-278.42 393.39,-260.42"/>
<polygon fill="black" stroke="black" points="396.08,-258.13 387.69,-251.67 390.21,-261.95 396.08,-258.13"/>
</g>
<!-- n7&#45;&gt;n3 -->
<g id="edge39" class="edge">
<title>n7&#45;&gt;n3</title>
<path fill="none" stroke="black" d="M454.92,-365.34C419.44,-346.76 353.97,-306.85 323,-252 299.16,-209.77 296.04,-151.89 296.58,-118.27"/>
<polygon fill="black" stroke="black" points="300.08,-118.35 296.86,-108.25 293.08,-118.15 300.08,-118.35"/>
</g>
<!-- n7&#45;&gt;n6 -->
<g id="edge42" class="edge">
<title>n7&#45;&gt;n6</title>
<path fill="none" stroke="black" d="M487.77,-360.41C492.08,-352.25 497.38,-342.22 502.22,-333.07"/>
<polygon fill="black" stroke="black" points="505.46,-334.43 507.04,-323.96 499.27,-331.16 505.46,-334.43"/>
</g>
<!-- n7&#45;&gt;n1 -->
<g id="edge38" class="edge">
<title>n7&#45;&gt;n1</title>
<path fill="none" stroke="black" d="M511.52,-373.93C543.1,-369.05 589.59,-356.47 613,-324 678.62,-233.02 665.83,-162.09 599,-72 588,-57.17 571.54,-45.19 556.49,-36.39"/>
<polygon fill="black" stroke="black" points="557.8,-33.12 547.36,-31.33 554.41,-39.24 557.8,-33.12"/>
</g>
</g>
</svg>
