<?xml version="1.0" encoding="UTF-8" standalone="no"?>
<!DOCTYPE svg PUBLIC "-//W3C//DTD SVG 1.1//EN"
 "http://www.w3.org/Graphics/SVG/1.1/DTD/svg11.dtd">
<!-- Generated by graphviz version 2.43.0 (0)
 -->
<!-- Title: %3 Pages: 1 -->
<svg width="675pt" height="476pt"
 viewBox="0.00 0.00 675.29 476.00" xmlns="http://www.w3.org/2000/svg" xmlns:xlink="http://www.w3.org/1999/xlink">
<g id="graph0" class="graph" transform="scale(1 1) rotate(0) translate(4 472)">
<title>%3</title>
<polygon fill="white" stroke="transparent" points="-4,4 -4,-472 671.29,-472 671.29,4 -4,4"/>
<!-- n4 -->
<g id="node1" class="node">
<title>n4</title>
<ellipse fill="none" stroke="black" cx="94.4" cy="-162" rx="76.89" ry="18"/>
<text text-anchor="middle" x="94.4" y="-158.3" font-family="Times,serif" font-size="14.00" fill="red">ansible&#45;server</text>
</g>
<!-- n1 -->
<g id="node3" class="node">
<title>n1</title>
<ellipse fill="none" stroke="black" cx="275.4" cy="-18" rx="28.7" ry="18"/>
<text text-anchor="middle" x="275.4" y="-14.3" font-family="Times,serif" font-size="14.00" fill="red">aws</text>
</g>
<!-- n4&#45;&gt;n1 -->
<g id="edge1" class="edge">
<title>n4&#45;&gt;n1</title>
<path fill="none" stroke="black" d="M107.18,-144C122.21,-124.81 148.65,-93.48 176.4,-72 196.89,-56.13 222.8,-42.45 242.97,-32.97"/>
<polygon fill="black" stroke="black" points="244.45,-36.14 252.08,-28.78 241.53,-29.78 244.45,-36.14"/>
</g>
<!-- n3 -->
<g id="node6" class="node">
<title>n3</title>
<ellipse fill="none" stroke="black" cx="236.4" cy="-90" rx="50.89" ry="18"/>
<text text-anchor="middle" x="236.4" y="-86.3" font-family="Times,serif" font-size="14.00" fill="red">platform</text>
</g>
<!-- n4&#45;&gt;n3 -->
<g id="edge2" class="edge">
<title>n4&#45;&gt;n3</title>
<path fill="none" stroke="black" d="M125.91,-145.46C147.45,-134.84 176.11,-120.72 198.84,-109.51"/>
<polygon fill="black" stroke="black" points="200.44,-112.63 207.86,-105.07 197.35,-106.35 200.44,-112.63"/>
</g>
<!-- n2 -->
<g id="node2" class="node">
<title>n2</title>
<ellipse fill="none" stroke="black" cx="273.4" cy="-450" rx="32.49" ry="18"/>
<text text-anchor="middle" x="273.4" y="-446.3" font-family="Times,serif" font-size="14.00" fill="red">apps</text>
</g>
<!-- n2&#45;&gt;n4 -->
<g id="edge5" class="edge">
<title>n2&#45;&gt;n4</title>
<path fill="none" stroke="black" d="M242.03,-444.45C185.61,-434.37 68.42,-404.31 20.4,-324 -7.37,-277.56 37.95,-218.93 69.04,-186.78"/>
<polygon fill="black" stroke="black" points="71.63,-189.14 76.2,-179.58 66.66,-184.21 71.63,-189.14"/>
</g>
<!-- n2&#45;&gt;n1 -->
<g id="edge3" class="edge">
<title>n2&#45;&gt;n1</title>
<path fill="none" stroke="black" d="M303.07,-442.28C330.93,-434.77 372.54,-420.35 401.4,-396 437.11,-365.86 457.4,-353.73 457.4,-307 457.4,-307 457.4,-307 457.4,-161 457.4,-87.39 363.72,-46.31 310.78,-28.98"/>
<polygon fill="black" stroke="black" points="311.68,-25.59 301.09,-25.92 309.57,-32.26 311.68,-25.59"/>
</g>
<!-- n5 -->
<g id="node4" class="node">
<title>n5</title>
<ellipse fill="none" stroke="black" cx="308.4" cy="-234" rx="44.69" ry="18"/>
<text text-anchor="middle" x="308.4" y="-230.3" font-family="Times,serif" font-size="14.00" fill="red">bastion</text>
</g>
<!-- n2&#45;&gt;n5 -->
<g id="edge6" class="edge">
<title>n2&#45;&gt;n5</title>
<path fill="none" stroke="black" d="M277.21,-431.86C279.45,-421.51 282.25,-408.03 284.4,-396 292.72,-349.26 300.46,-294.52 304.79,-262.42"/>
<polygon fill="black" stroke="black" points="308.27,-262.82 306.12,-252.44 301.33,-261.89 308.27,-262.82"/>
</g>
<!-- n2&#45;&gt;n3 -->
<g id="edge4" class="edge">
<title>n2&#45;&gt;n3</title>
<path fill="none" stroke="black" d="M298.49,-438.49C340.24,-419.14 419.4,-373.65 419.4,-307 419.4,-307 419.4,-307 419.4,-233 419.4,-164.67 338.77,-124.49 284.55,-105.19"/>
<polygon fill="black" stroke="black" points="285.35,-101.76 274.76,-101.83 283.08,-108.39 285.35,-101.76"/>
</g>
<!-- n6 -->
<g id="node7" class="node">
<title>n6</title>
<ellipse fill="none" stroke="black" cx="99.4" cy="-306" rx="69.59" ry="18"/>
<text text-anchor="middle" x="99.4" y="-302.3" font-family="Times,serif" font-size="14.00" fill="red">platform&#45;k8s</text>
</g>
<!-- n2&#45;&gt;n6 -->
<g id="edge7" class="edge">
<title>n2&#45;&gt;n6</title>
<path fill="none" stroke="black" d="M253.81,-435.54C238.9,-425.1 218,-410.1 200.4,-396 173.82,-374.72 144.79,-348.84 124.7,-330.49"/>
<polygon fill="black" stroke="black" points="126.93,-327.79 117.2,-323.61 122.2,-332.95 126.93,-327.79"/>
</g>
<!-- n7 -->
<g id="node9" class="node">
<title>n7</title>
<ellipse fill="none" stroke="black" cx="242.4" cy="-378" rx="33.29" ry="18"/>
<text text-anchor="middle" x="242.4" y="-374.3" font-family="Times,serif" font-size="14.00" fill="red">tools</text>
</g>
<!-- n2&#45;&gt;n7 -->
<g id="edge8" class="edge">
<title>n2&#45;&gt;n7</title>
<path fill="none" stroke="black" d="M266.05,-432.41C262.47,-424.34 258.09,-414.43 254.07,-405.35"/>
<polygon fill="black" stroke="black" points="257.15,-403.68 249.9,-395.96 250.75,-406.52 257.15,-403.68"/>
</g>
<!-- n5&#45;&gt;n4 -->
<g id="edge11" class="edge">
<title>n5&#45;&gt;n4</title>
<path fill="none" stroke="black" d="M274.49,-221.91C240.19,-210.69 186.7,-193.19 146.92,-180.18"/>
<polygon fill="black" stroke="black" points="147.97,-176.84 137.37,-177.06 145.79,-183.49 147.97,-176.84"/>
</g>
<!-- n5&#45;&gt;n1 -->
<g id="edge9" class="edge">
<title>n5&#45;&gt;n1</title>
<path fill="none" stroke="black" d="M308.8,-215.83C309.14,-186.11 308.19,-123.36 296.4,-72 294.29,-62.85 290.86,-53.2 287.38,-44.68"/>
<polygon fill="black" stroke="black" points="290.51,-43.1 283.34,-35.3 284.08,-45.87 290.51,-43.1"/>
</g>
<!-- n5&#45;&gt;n3 -->
<g id="edge10" class="edge">
<title>n5&#45;&gt;n3</title>
<path fill="none" stroke="black" d="M299.85,-216.15C287.4,-191.6 264.17,-145.77 249.53,-116.91"/>
<polygon fill="black" stroke="black" points="252.57,-115.16 244.93,-107.82 246.33,-118.33 252.57,-115.16"/>
</g>
<!-- n8 -->
<g id="node5" class="node">
<title>n8</title>
<ellipse fill="none" stroke="black" cx="559.4" cy="-378" rx="74.19" ry="18"/>
<text text-anchor="middle" x="559.4" y="-374.3" font-family="Times,serif" font-size="14.00" fill="red">grafana&#45;cloud</text>
</g>
<!-- n3&#45;&gt;n1 -->
<g id="edge12" class="edge">
<title>n3&#45;&gt;n1</title>
<path fill="none" stroke="black" d="M245.84,-72.05C250.5,-63.68 256.23,-53.4 261.39,-44.13"/>
<polygon fill="black" stroke="black" points="264.5,-45.75 266.31,-35.31 258.39,-42.34 264.5,-45.75"/>
</g>
<!-- n6&#45;&gt;n4 -->
<g id="edge15" class="edge">
<title>n6&#45;&gt;n4</title>
<path fill="none" stroke="black" d="M98.79,-287.87C97.94,-263.67 96.37,-219.21 95.36,-190.39"/>
<polygon fill="black" stroke="black" points="98.85,-190.06 95,-180.19 91.85,-190.31 98.85,-190.06"/>
</g>
<!-- n6&#45;&gt;n1 -->
<g id="edge13" class="edge">
<title>n6&#45;&gt;n1</title>
<path fill="none" stroke="black" d="M77.95,-288.68C42.3,-259.51 -22.32,-196.52 8.4,-144 56.52,-61.72 175.92,-33 237.43,-23.46"/>
<polygon fill="black" stroke="black" points="238.11,-26.9 247.5,-21.99 237.1,-19.97 238.11,-26.9"/>
</g>
<!-- n6&#45;&gt;n5 -->
<g id="edge16" class="edge">
<title>n6&#45;&gt;n5</title>
<path fill="none" stroke="black" d="M140.19,-291.34C176.13,-279.3 228.33,-261.82 265.02,-249.53"/>
<polygon fill="black" stroke="black" points="266.57,-252.7 274.94,-246.21 264.34,-246.06 266.57,-252.7"/>
</g>
<!-- n6&#45;&gt;n3 -->
<g id="edge14" class="edge">
<title>n6&#45;&gt;n3</title>
<path fill="none" stroke="black" d="M110.47,-288.06C126.14,-264.07 155.62,-218.79 180.4,-180 194.03,-158.64 209.35,-134.28 220.51,-116.45"/>
<polygon fill="black" stroke="black" points="223.6,-118.11 225.93,-107.77 217.66,-114.4 223.6,-118.11"/>
</g>
<!-- n9 -->
<g id="node8" class="node">
<title>n9</title>
<ellipse fill="none" stroke="black" cx="559.4" cy="-450" rx="107.78" ry="18"/>
<text text-anchor="middle" x="559.4" y="-446.3" font-family="Times,serif" font-size="14.00" fill="red">synthetic&#45;monitoring</text>
</g>
<!-- n9&#45;&gt;n8 -->
<g id="edge17" class="edge">
<title>n9&#45;&gt;n8</title>
<path fill="none" stroke="black" d="M559.4,-431.7C559.4,-423.98 559.4,-414.71 559.4,-406.11"/>
<polygon fill="black" stroke="black" points="562.9,-406.1 559.4,-396.1 555.9,-406.1 562.9,-406.1"/>
</g>
<!-- n7&#45;&gt;n4 -->
<g id="edge20" class="edge">
<title>n7&#45;&gt;n4</title>
<path fill="none" stroke="black" d="M231.27,-360.92C205.68,-323.92 142.5,-232.55 111.75,-188.1"/>
<polygon fill="black" stroke="black" points="114.62,-186.1 106.06,-179.86 108.87,-190.08 114.62,-186.1"/>
</g>
<!-- n7&#45;&gt;n1 -->
<g id="edge18" class="edge">
<title>n7&#45;&gt;n1</title>
<path fill="none" stroke="black" d="M266.93,-365.83C306.83,-345.79 381.4,-299.68 381.4,-235 381.4,-235 381.4,-235 381.4,-161 381.4,-108.19 333.73,-62.36 302.33,-37.89"/>
<polygon fill="black" stroke="black" points="304.43,-35.09 294.35,-31.85 300.21,-40.67 304.43,-35.09"/>
</g>
<!-- n7&#45;&gt;n5 -->
<g id="edge21" class="edge">
<title>n7&#45;&gt;n5</title>
<path fill="none" stroke="black" d="M250.1,-360.43C261.46,-335.98 282.83,-290 296.3,-261.02"/>
<polygon fill="black" stroke="black" points="299.5,-262.45 300.54,-251.9 293.15,-259.49 299.5,-262.45"/>
</g>
<!-- n7&#45;&gt;n3 -->
<g id="edge19" class="edge">
<title>n7&#45;&gt;n3</title>
<path fill="none" stroke="black" d="M242.04,-359.97C241.04,-312.29 238.2,-177.18 236.98,-118.63"/>
<polygon fill="black" stroke="black" points="240.47,-118.23 236.76,-108.31 233.47,-118.38 240.47,-118.23"/>
</g>
<!-- n7&#45;&gt;n6 -->
<g id="edge22" class="edge">
<title>n7&#45;&gt;n6</title>
<path fill="none" stroke="black" d="M218.46,-365.28C196.93,-354.75 164.88,-339.05 139.45,-326.61"/>
<polygon fill="black" stroke="black" points="140.93,-323.44 130.41,-322.18 137.86,-329.72 140.93,-323.44"/>
</g>
</g>
</svg>
